<?xml version="1.0" encoding="UTF-8" standalone="no"?>
<!-- Created with Inkscape (http://www.inkscape.org/) -->

<svg
   xmlns:dc="http://purl.org/dc/elements/1.1/"
   xmlns:cc="http://creativecommons.org/ns#"
   xmlns:rdf="http://www.w3.org/1999/02/22-rdf-syntax-ns#"
   xmlns:svg="http://www.w3.org/2000/svg"
   xmlns="http://www.w3.org/2000/svg"
   xmlns:sodipodi="http://sodipodi.sourceforge.net/DTD/sodipodi-0.dtd"
   xmlns:inkscape="http://www.inkscape.org/namespaces/inkscape"
   id="svg2"
   version="1.1"
   inkscape:version="0.91 r13725"
   xml:space="preserve"
   width="250.4875"
   height="229.3"
   viewBox="0 0 250.4875 239.3"
   sodipodi:docname="logo-virksomheder.svg"><metadata
     id="metadata8"><rdf:RDF><cc:Work
         rdf:about=""><dc:format>image/svg+xml</dc:format><dc:type
           rdf:resource="http://purl.org/dc/dcmitype/StillImage" /><dc:title></dc:title></cc:Work></rdf:RDF></metadata><defs
     id="defs6"><clipPath
       clipPathUnits="userSpaceOnUse"
       id="clipPath18"><path
         d="m 0,0 2003.88,0 0,1914 L 0,1914 0,0 Z"
         id="path20"
         inkscape:connector-curvature="0" /></clipPath></defs><sodipodi:namedview
     pagecolor="#ffffff"
     bordercolor="#666666"
     borderopacity="1"
     objecttolerance="10"
     gridtolerance="10"
     guidetolerance="10"
     inkscape:pageopacity="0"
     inkscape:pageshadow="2"
     inkscape:window-width="1920"
     inkscape:window-height="1137"
     id="namedview4"
     showgrid="false"
     inkscape:zoom="1.9724195"
     inkscape:cx="102.53531"
     inkscape:cy="44.616573"
     inkscape:window-x="-8"
     inkscape:window-y="-8"
     inkscape:window-maximized="1"
     inkscape:current-layer="g14" /><g
     id="g10"
     inkscape:groupmode="layer"
     inkscape:label="ink_ext_XXXXXX"
     transform="matrix(1.25,0,0,-1.25,0,239.3)"><g
       id="g12"
       transform="scale(0.1,0.1)"><g
         id="g14"><g
           id="g16"
           clip-path="url(#clipPath18)"><path
             d="m 585.059,328.039 0,133.5 -25.2,0 0,-133.5 c 0,-46.199 32.098,-78.301 79.797,-78.301 47.399,0 79.801,32.102 79.801,78.301 l 0,133.5 -25.496,0 0,-133.5 c 0,-30.898 -19.203,-53.699 -54.305,-53.699 -34.797,0 -54.597,22.801 -54.597,53.699 m 281.996,138.602 c -41.395,0 -73.496,-31.5 -73.496,-72.903 l 0,-140.398 25.5,0 0,140.398 c 0,27.602 21.601,48.602 47.996,48.602 26.402,0 48.004,-21 48.004,-48.602 l 0,-140.398 25.5,0 0,140.398 c 0,41.403 -32.102,72.903 -73.504,72.903 m 177.905,-5.102 -25.5,0 0,-208.199 25.5,0 0,208.199 z m 218.39,-24.301 0,24.301 -156.3,0 0,-24.301 65.39,0 0,-183.898 25.51,0 0,183.898 65.4,0 z m 200.1,24.301 -25.5,0 0,-57.301 c 0,-27 -17.7,-49.199 -46.8,-49.199 -28.5,0 -47.4,22.199 -47.4,49.199 l 0,57.301 -25.2,0 0,-57.301 c 0,-37.199 24.3,-67.199 60,-72.898 l 0,-78 25.49,0 0,78.301 c 35.41,5.699 59.41,35.699 59.41,72.597 l 0,57.301"
             style="fill:#babbbe;fill-opacity:1;fill-rule:nonzero;stroke:none"
             id="path22"
             inkscape:connector-curvature="0" /><path
             d="m 329.648,1102 -58.011,0 0,-130.363 c 0,-61.426 -40.27,-111.938 -106.473,-111.938 -64.836,0 -107.8359,50.512 -107.8359,111.938 l 0,130.363 L 0,1102 0,971.637 C 0,887.012 55.2891,818.762 136.5,805.801 l 0,-177.449 58.008,0 0,178.117 c 80.543,12.98 135.14,81.222 135.14,165.168 l 0,130.363 z m 365.887,11.6 c -129.668,0 -234.777,-108.52 -234.777,-246.389 0,-138.539 105.109,-247.063 234.777,-247.063 129.684,0 234.781,109.204 234.781,247.063 0,140.599 -103.05,246.389 -234.781,246.389 m 0,-437.479 c -97.586,0 -177.449,83.258 -177.449,191.09 0,107.148 79.863,191.109 177.449,191.109 99.653,0 177.453,-81.91 177.453,-191.109 0,-107.152 -79.847,-191.09 -177.453,-191.09 m 599.915,210.199 0,-55.949 167.22,0 c -8.88,-88.062 -71.67,-154.25 -170.64,-154.25 -98.27,0 -178.12,86.68 -178.12,191.09 0,103.742 79.85,190.419 178.12,190.419 70.31,0 128.32,-38.9 157.67,-101.689 l 61.41,0 c -36.84,104.429 -124.88,157.659 -219.08,157.659 -130.35,0 -235.45,-110.57 -235.45,-246.389 0,-136.492 105.1,-247.063 235.45,-247.063 136.51,0 230,95.551 230,241.602 l 0,24.57 -226.58,0 z m 708.43,60.063 c 0,94.177 -70.29,167.217 -167.21,167.217 -96.23,0 -167.22,-73.04 -167.22,-167.217 l 0,-318.031 58.01,0 0,176.078 218.41,0 0,-176.078 58.01,0 0,318.031 z m -58.01,-85.985 -218.41,0 0,85.985 c 0,61.427 47.11,111.937 109.21,111.937 64.16,0 109.2,-50.51 109.2,-111.937 l 0,-85.985"
             style="fill:#3db7b3;fill-opacity:1;fill-rule:nonzero;stroke:none"
             id="path24"
             inkscape:connector-curvature="0" /><path
             d="m 1383.14,1748.57 c -6.68,5.1 -12.93,6.73 -19.42,8.02 -12.98,2.57 -27.9,2.49 -45.76,0.97 -35.71,-3.02 -82.1,-12.67 -129.25,-29.03 -0.88,-0.3 -1.76,-0.62 -2.64,-0.93 -6.79,16.07 -17.87,39.77 -33.28,65 -27.71,45.38 -69.72,97.7 -130.71,120.35 -2.7,1.05 -5.58,1.54 -8.47,1.45 -1.67,-0.05 -3.28,-0.3 -4.83,-0.7 -1.69,0.42 -3.43,0.7 -5.23,0.7 -2.67,0 -5.32,-0.49 -7.82,-1.45 -60.98,-22.65 -102.992,-74.97 -130.71,-120.35 -15.372,-25.17 -26.43,-48.81 -33.227,-64.88 -0.773,0.26 -1.535,0.55 -2.289,0.81 -47.164,16.36 -93.551,26.01 -129.266,29.03 -17.859,1.52 -32.765,1.6 -45.758,-0.97 -6.492,-1.29 -12.742,-2.92 -19.429,-8.02 -6.684,-5.1 -12.789,-17.44 -11.004,-27.46 0.84,-4.74 3.234,-9.07 6.812,-12.3 0,0 72.223,-67.58 93.274,-130.72 10.484,-31.48 12.105,-74.73 18.988,-119.91 6.891,-45.18 20.059,-93.59 58.387,-131.93 70.879,-70.87 186.402,-57.82 207.602,-54.71 21.2,-3.11 136.71,-16.16 207.58,54.71 38.34,38.34 51.53,86.75 58.41,131.93 6.88,45.18 8.47,88.43 18.97,119.91 21.05,63.14 93.27,130.72 93.27,130.72 3.58,3.23 5.98,7.56 6.82,12.3 1.8,10.02 -4.34,22.36 -11.02,27.46 m -481.171,21.45 c 24.742,40.53 61.66,83.93 106.941,101.57 45.27,-17.64 82.18,-61.04 106.94,-101.57 13.88,-22.71 23.82,-43.89 29.96,-58.31 -32.35,-14.26 -63.41,-31.92 -89.47,-53.56 -18.98,-15.74 -35.48,-34.03 -47.24,-54.64 -11.752,20.61 -28.26,38.9 -47.229,54.64 -26.164,21.71 -57.328,39.41 -89.801,53.71 6.137,14.41 16.071,35.52 29.899,58.16 m -69.852,-413.16 c -29.008,29 -39.867,66.21 -46.219,107.85 -6.335,41.64 -7.136,86.4 -20.687,127.07 -18.902,56.68 -54.961,97.38 -79.723,122.56 4.332,-0.07 5.992,0.54 11.106,0.11 30.996,-2.63 74.965,-11.62 118.715,-26.81 5.851,-2.03 11.711,-4.18 17.535,-6.44 1.289,-0.77 2.664,-1.43 4.136,-1.93 0.864,-0.31 1.719,-0.54 2.583,-0.71 35.285,-14.23 69.046,-32.45 94.675,-53.72 31.45,-26.11 49.895,-55.1 50.2,-88.44 1.23,-132.81 2.605,-208.04 2.863,-222.87 -35.172,-1.49 -112.442,0.59 -155.184,43.33 M 1253,1591.78 c -13.57,-40.67 -14.37,-85.43 -20.7,-127.07 -6.34,-41.64 -17.21,-78.85 -46.21,-107.85 -42.75,-42.75 -120.04,-44.82 -155.18,-43.33 0.26,14.83 1.63,90.06 2.85,222.87 0.31,33.34 18.77,62.33 50.22,88.44 25.79,21.39 59.79,39.7 95.3,53.96 0.45,0.13 0.9,0.23 1.35,0.38 1.19,0.41 2.32,0.92 3.39,1.5 6.27,2.44 12.57,4.77 18.87,6.96 43.76,15.19 87.72,24.18 118.73,26.81 5.11,0.43 6.78,-0.18 11.11,-0.11 -24.77,-25.18 -60.84,-65.88 -79.73,-122.56"
             style="fill:#80d4c8;fill-opacity:1;fill-rule:nonzero;stroke:none"
             id="path28"
             inkscape:connector-curvature="0" /></g></g></g></g></svg>