<?xml version="1.0" encoding="UTF-8" standalone="no"?>
<!-- Created with Inkscape (http://www.inkscape.org/) -->

<svg
   xmlns:svg="http://www.w3.org/2000/svg"
   xmlns="http://www.w3.org/2000/svg"
   viewBox="0 0 318.89764 290.55118"
   id="svg4278"
   width="60"
   height="48">
  <g
     id="layer1"
     transform="translate(0,-761.81102)">
    <path
       style="color:#000000;font-style:normal;font-variant:normal;font-weight:normal;font-stretch:normal;font-size:medium;line-height:normal;font-family:sans-serif;text-indent:0;text-align:start;text-decoration:none;text-decoration-line:none;text-decoration-style:solid;text-decoration-color:#000000;letter-spacing:normal;word-spacing:normal;text-transform:none;direction:ltr;block-progression:tb;writing-mode:lr-tb;baseline-shift:baseline;text-anchor:start;white-space:normal;clip-rule:nonzero;display:inline;overflow:visible;visibility:visible;opacity:1;isolation:auto;mix-blend-mode:normal;color-interpolation:sRGB;color-interpolation-filters:linearRGB;solid-color:#000000;solid-opacity:1;fill:#87ccda;fill-opacity:1;fill-rule:evenodd;stroke:none;stroke-width:5;stroke-linecap:round;stroke-linejoin:round;stroke-miterlimit:4;stroke-dasharray:none;stroke-dashoffset:0;stroke-opacity:1;color-rendering:auto;image-rendering:auto;shape-rendering:auto;text-rendering:auto;enable-background:accumulate"
       d="m 159.24056,770.48877 a 8.2901,8.2901 0 0 0 -2.99839,0.55694 c -23.35594,8.67505 -39.43965,28.7149 -50.05294,46.09611 -6.0085,9.84 -10.107469,18.70438 -12.699431,24.86134 -0.302061,-0.10609 -0.60448,-0.22546 -0.906613,-0.33024 -18.058639,-6.26536 -35.831894,-9.96221 -49.508998,-11.11929 -6.838542,-0.57856 -12.551645,-0.60969 -17.524016,0.3756 -2.486144,0.49265 -4.880882,1.1172 -7.440908,3.06962 -2.559995,1.95242 -4.900389,6.68673 -4.21589,10.5235 a 8.2901,8.2901 0 0 0 2.609825,4.70157 c 0,0 27.6659,25.8794 35.728048,50.0659 3.766311,11.29898 4.634594,35.08871 7.220755,58.83439 2.586182,23.74564 6.727802,48.45269 22.413396,64.13829 27.805302,27.8053 73.021112,21.9472 79.499312,20.9433 6.49404,1.0058 51.70012,6.8559 79.49928,-20.9433 15.68559,-15.6856 19.82721,-40.39265 22.41339,-64.13829 2.58616,-23.74568 3.45445,-47.53541 7.22076,-58.83439 8.06214,-24.1865 35.72804,-50.0659 35.72804,-50.0659 a 8.2901,8.2901 0 0 0 2.60983,-4.70157 c 0.6845,-3.83677 -1.6559,-8.57108 -4.21589,-10.5235 -2.56003,-1.95242 -4.95476,-2.57697 -7.44091,-3.06962 -4.97237,-0.98529 -10.68547,-0.95416 -17.52402,-0.3756 -13.6771,1.15708 -31.45032,4.85393 -49.50896,11.11929 -0.34772,0.12069 -0.69481,0.25962 -1.04266,0.38207 -2.5894,-6.15691 -6.68506,-15.04234 -12.71236,-24.91314 -10.61328,-17.38121 -26.69699,-37.42105 -50.05294,-46.0961 a 8.2901,8.2901 0 0 0 -3.25095,-0.55694 8.2901,8.2901 0 0 0 -1.82622,0.26558 8.2901,8.2901 0 0 0 -2.02054,-0.26558 z m 2.04643,16.39721 c 17.3394,6.75354 31.47874,23.37701 40.95417,38.89482 5.43163,8.89525 9.12755,16.84734 11.4625,22.36807 -12.38347,5.4612 -24.27575,12.19782 -34.25153,20.47708 -7.26219,6.0272 -13.58575,13.02941 -18.08742,20.91748 -4.50178,-7.88917 -10.82443,-14.88962 -18.08745,-20.91748 -10.01066,-8.30824 -21.95073,-15.06422 -34.38105,-20.53538 2.33963,-5.52058 6.03332,-13.45033 11.44307,-22.30977 9.47571,-15.51818 23.60794,-32.14159 40.94771,-38.89482 z M 39.441168,847.04149 c 0.611058,-0.0341 1.263682,-0.0504 2.240694,0.0332 11.87312,1.00447 28.70465,4.44424 45.461471,10.25798 1.999472,0.69371 3.992785,1.42727 5.983831,2.18889 a 8.2901,8.2901 0 0 0 3.982725,1.59957 c 13.263471,5.40795 25.932091,12.25695 35.579111,20.26338 12.04816,9.99919 19.11586,21.11178 19.23369,33.87593 0.47926,51.90457 1.04051,104.36356 1.12036,111.87276 -13.44113,0.5776 -43.06446,-0.1999 -59.456094,-16.5915 C 83.483688,1000.4384 78.412873,979.09756 75.933388,956.33119 73.453871,933.56484 73.398966,910.377 67.954966,894.04507 60.721486,872.34453 46.917464,856.75782 37.433607,847.11354 c 0.827105,0.0166 1.396544,-0.0372 2.007561,-0.0713 z m 243.840582,0.006 c 0.61102,0.0341 1.18692,0.0803 2.01403,0.0646 -9.48386,9.64426 -23.28788,25.23098 -30.52136,46.93152 -5.444,16.33192 -5.49891,39.51976 -7.97842,62.28612 -2.47949,22.76638 -7.5503,44.10717 -17.65357,54.21057 -16.39164,16.3916 -46.01497,17.1691 -59.45609,16.5914 0.0799,-7.5091 0.64109,-59.96816 1.12035,-111.87272 0.11771,-12.76415 7.18553,-23.87676 19.23369,-33.87593 9.93658,-8.24677 23.07378,-15.27004 36.77071,-20.74908 a 8.2901,8.2901 0 0 0 1.4053,-0.5699 c 2.44755,-0.95725 4.90655,-1.87828 7.36966,-2.73288 16.75682,-5.81372 33.58835,-9.25351 45.46147,-10.25797 0.97701,-0.0825 1.62317,-0.0601 2.23423,-0.0266 z"
       id="path4147-6" />
  </g>
</svg>
