<?xml version="1.0" encoding="UTF-8" standalone="no"?>
<!-- Created with Inkscape (http://www.inkscape.org/) -->

<svg
   xmlns:dc="http://purl.org/dc/elements/1.1/"
   xmlns:cc="http://creativecommons.org/ns#"
   xmlns:rdf="http://www.w3.org/1999/02/22-rdf-syntax-ns#"
   xmlns:svg="http://www.w3.org/2000/svg"
   xmlns="http://www.w3.org/2000/svg"
   xmlns:sodipodi="http://sodipodi.sourceforge.net/DTD/sodipodi-0.dtd"
   xmlns:inkscape="http://www.inkscape.org/namespaces/inkscape"
   id="svg2"
   version="1.1"
   inkscape:version="0.91 r13725"
   xml:space="preserve"
   width="172.2"
   height="172.2"
   viewBox="0 0 172.2 172.2"
   sodipodi:docname="lotus-pose-icon.svg"><metadata
     id="metadata8"><rdf:RDF><cc:Work
         rdf:about=""><dc:format>image/svg+xml</dc:format><dc:type
           rdf:resource="http://purl.org/dc/dcmitype/StillImage" /><dc:title></dc:title></cc:Work></rdf:RDF></metadata><defs
     id="defs6"><clipPath
       clipPathUnits="userSpaceOnUse"
       id="clipPath18"><path
         d="M 0,1377.58 0,0 l 1377.57,0 0,1377.58 -1377.57,0 z"
         id="path20"
         inkscape:connector-curvature="0" /></clipPath></defs><sodipodi:namedview
     pagecolor="#ffffff"
     bordercolor="#666666"
     borderopacity="1"
     objecttolerance="10"
     gridtolerance="10"
     guidetolerance="10"
     inkscape:pageopacity="0"
     inkscape:pageshadow="2"
     inkscape:window-width="1920"
     inkscape:window-height="1137"
     id="namedview4"
     showgrid="false"
     inkscape:zoom="1.3704994"
     inkscape:cx="86.099998"
     inkscape:cy="86.099998"
     inkscape:window-x="-8"
     inkscape:window-y="-8"
     inkscape:window-maximized="1"
     inkscape:current-layer="g10" /><g
     id="g10"
     inkscape:groupmode="layer"
     inkscape:label="ink_ext_XXXXXX"
     transform="matrix(1.25,0,0,-1.25,0,172.2)"><g
       id="g12"
       transform="scale(0.1,0.1)"
       style="fill:#80d4c8;fill-opacity:1"><g
         id="g14"
         style="fill:#80d4c8;fill-opacity:1"><g
           id="g16"
           clip-path="url(#clipPath18)"
           style="fill:#80d4c8;fill-opacity:1"><path
             d="M 688.789,1357.58 C 320.02,1357.58 20,1057.56 20,688.789 20,320.02 320.02,20 688.789,20 c 368.761,0 668.781,300.02 668.781,668.789 0,368.771 -300.02,668.791 -668.781,668.791 z M 688.789,0 C 308.988,0 0,308.988 0,688.789 c 0,379.801 308.988,688.791 688.789,688.791 379.801,0 688.781,-308.99 688.781,-688.791 C 1377.57,308.988 1068.59,0 688.789,0"
             style="fill:#80d4c8;fill-opacity:1;fill-rule:nonzero;stroke:none"
             id="path22"
             inkscape:connector-curvature="0" /><path
             d="m 688.789,1274.38 c -323.824,0 -587.269,-263.45 -587.269,-587.271 0,-323.82 263.445,-587.2692 587.269,-587.2692 323.821,0 587.271,263.4492 587.271,587.2692 0,323.821 -263.45,587.271 -587.271,587.271 z m 0,-1194.5402 c -334.848,0 -607.2695,272.4222 -607.2695,607.2692 0,334.851 272.4215,607.271 607.2695,607.271 334.851,0 607.271,-272.42 607.271,-607.271 0,-334.847 -272.42,-607.2692 -607.271,-607.2692"
             style="fill:#80d4c8;fill-opacity:1;fill-rule:nonzero;stroke:none"
             id="path24"
             inkscape:connector-curvature="0" /><path
             d="m 688.789,1145.23 c -38.824,0 -70.41,-43.93 -70.41,-97.94 0,-54.013 31.586,-97.95 70.41,-97.95 38.824,0 70.406,43.937 70.406,97.95 0,54.01 -31.582,97.94 -70.406,97.94 z m 0,-215.89 c -49.851,0 -90.41,52.906 -90.41,117.95 0,65.03 40.559,117.94 90.41,117.94 49.859,0 90.406,-52.91 90.406,-117.94 0,-65.044 -40.547,-117.95 -90.406,-117.95"
             style="fill:#80d4c8;fill-opacity:1;fill-rule:nonzero;stroke:none"
             id="path26"
             inkscape:connector-curvature="0" /><path
             d="m 298.922,356.441 791.598,0 0,20 -791.598,0 0,-20 z"
             style="fill:#80d4c8;fill-opacity:1;fill-rule:nonzero;stroke:none"
             id="path28"
             inkscape:connector-curvature="0" /><path
             d="M 682.48,363.07 C 503.43,508.68 405.57,497.809 404.641,497.652 l -1.055,-0.136 -1.121,0.078 c -21.938,1.758 -36.672,-1.114 -39.457,-7.723 -7.406,-17.609 37.558,-71.582 83.469,-111.496 l -13.118,-15.094 c -17.769,15.446 -105.55,94.469 -88.785,134.344 9.801,23.301 45.399,21.016 58.528,19.988 12.812,1.25 113.746,5.938 291.996,-139.023 L 682.48,363.07"
             style="fill:#80d4c8;fill-opacity:1;fill-rule:nonzero;stroke:none"
             id="path30"
             inkscape:connector-curvature="0" /><path
             d="m 699.086,363.07 -12.617,15.52 c 178.234,144.941 279.172,140.305 292.004,139.023 13.125,1.016 48.727,3.301 58.517,-19.988 16.77,-39.875 -71.017,-118.898 -88.783,-134.344 l -13.113,15.094 c 45.906,39.914 90.876,93.887 83.466,111.496 -2.78,6.609 -17.51,9.481 -39.462,7.723 l -1.114,-0.098 -1.113,0.168 c -0.91,0.086 -98.723,11.024 -277.785,-134.594"
             style="fill:#80d4c8;fill-opacity:1;fill-rule:nonzero;stroke:none"
             id="path32"
             inkscape:connector-curvature="0" /><path
             d="m 544.602,461.461 -10.614,16.953 c 3.203,2.031 78.379,51.328 71.582,190.586 l 19.981,0.977 C 632.949,518.328 548.215,463.719 544.602,461.461"
             style="fill:#80d4c8;fill-opacity:1;fill-rule:nonzero;stroke:none"
             id="path34"
             inkscape:connector-curvature="0" /><path
             d="m 836.059,461.461 c -3.614,2.258 -88.348,56.867 -80.946,208.516 L 775.094,669 c -6.797,-139.258 68.379,-188.555 71.582,-190.586 l -10.617,-16.953"
             style="fill:#80d4c8;fill-opacity:1;fill-rule:nonzero;stroke:none"
             id="path36"
             inkscape:connector-curvature="0" /><path
             d="m 481.711,593.738 c -14.07,0 -28.691,1.59 -43.856,4.793 l -7.226,1.524 -0.668,7.343 c -0.547,5.957 -12.027,146.93 103.418,232.047 l 1.594,1.176 1.922,0.481 c 1.218,0.304 121.789,31.183 115.488,97.289 l 19.914,1.894 C 679.789,861.598 561.34,826.922 543.715,822.207 453.402,754.445 449.004,645.848 449.563,616.637 c 43.265,-7.528 81.203,-0.235 112.855,21.75 72.453,50.301 89.867,161.004 90.031,162.117 l 19.778,-2.977 c -0.739,-4.886 -18.934,-120.402 -98.411,-175.578 -27.054,-18.777 -57.914,-28.211 -92.105,-28.211"
             style="fill:#80d4c8;fill-opacity:1;fill-rule:nonzero;stroke:none"
             id="path38"
             inkscape:connector-curvature="0" /><path
             d="m 900.367,593.738 c -34.199,0 -65.058,9.422 -92.109,28.211 -79.473,55.176 -97.676,170.692 -98.418,175.578 l 19.785,2.985 c 0.164,-1.117 17.734,-112.004 90.098,-162.176 31.64,-21.934 69.57,-29.227 112.793,-21.699 0.547,29.211 -3.848,137.808 -94.161,205.57 -17.617,4.715 -136.074,39.391 -128.574,118.078 l 19.903,-1.894 c -6.289,-66.106 114.277,-96.985 115.488,-97.289 l 1.922,-0.481 1.594,-1.176 C 964.137,754.328 952.652,613.355 952.105,607.398 l -0.664,-7.343 -7.226,-1.524 c -15.156,-3.203 -29.785,-4.793 -43.848,-4.793"
             style="fill:#80d4c8;fill-opacity:1;fill-rule:nonzero;stroke:none"
             id="path40"
             inkscape:connector-curvature="0" /></g></g></g></g></svg>