<?xml version="1.0" encoding="UTF-8" standalone="no"?>
<!-- Created with Inkscape (http://www.inkscape.org/) -->

<svg
   xmlns:dc="http://purl.org/dc/elements/1.1/"
   xmlns:cc="http://creativecommons.org/ns#"
   xmlns:rdf="http://www.w3.org/1999/02/22-rdf-syntax-ns#"
   xmlns:svg="http://www.w3.org/2000/svg"
   xmlns="http://www.w3.org/2000/svg"
   xmlns:sodipodi="http://sodipodi.sourceforge.net/DTD/sodipodi-0.dtd"
   xmlns:inkscape="http://www.inkscape.org/namespaces/inkscape"
   width="90mm"
   height="75mm"
   viewBox="0 0 318.89764 265.74803"
   id="svg2"
   version="1.1"
   inkscape:version="0.91 r13725"
   sodipodi:docname="lotus-ny-outline.svg">
  <defs
     id="defs4" />
  <sodipodi:namedview
     id="base"
     pagecolor="#ffffff"
     bordercolor="#666666"
     borderopacity="1.0"
     inkscape:pageopacity="0.0"
     inkscape:pageshadow="2"
     inkscape:zoom="1.0606602"
     inkscape:cx="211.77882"
     inkscape:cy="303.70809"
     inkscape:document-units="px"
     inkscape:current-layer="layer1"
     showgrid="false"
     inkscape:window-width="1920"
     inkscape:window-height="1137"
     inkscape:window-x="-8"
     inkscape:window-y="-8"
     inkscape:window-maximized="1" />
  <metadata
     id="metadata7">
    <rdf:RDF>
      <cc:Work
         rdf:about="">
        <dc:format>image/svg+xml</dc:format>
        <dc:type
           rdf:resource="http://purl.org/dc/dcmitype/StillImage" />
        <dc:title></dc:title>
      </cc:Work>
    </rdf:RDF>
  </metadata>
  <g
     inkscape:label="Layer 1"
     inkscape:groupmode="layer"
     id="layer1"
     transform="translate(0,-786.61417)">
    <g
       id="g4145"
       transform="matrix(3.4781806,0,0,3.4781806,-50.567778,-1956.2051)">
      <path
         inkscape:connector-curvature="0"
         id="path4147"
         d="m 25.103624,807.86832 c -2.06247,-0.17449 -3.78552,-0.18388 -5.28515,0.11328 -0.74982,0.14858 -1.47206,0.33694 -2.24414,0.92578 -0.77209,0.58883 -1.47793,2.01473 -1.27149,3.17187 a 2.50025,2.50025 0 0 0 0.78711,1.41993 c 0,0 8.34194,7.80509 10.77344,15.0996 1.2118,3.63541 1.39837,8.6316 2.19336,13.84961 0.79499,5.21802 2.3165,10.81065 6.74414,15.23829 9.04046,9.04047 24.37109,6.25781 24.37109,6.25781 a 2.50025,2.50025 0 0 0 2.11914,-2.51563 c 0,0 -0.20686,-11.33101 -0.36133,-28.06054 -0.0526,-5.69458 -3.28013,-10.4262 -7.60742,-14.01758 -4.32728,-3.59138 -9.84267,-6.2393 -15.28906,-8.12891 -5.44639,-1.88961 -10.80475,-3.00454 -14.92969,-3.35351 z m -0.42187,4.98046 c 3.58087,0.30295 8.65911,1.34232 13.71289,3.09571 5.05377,1.75339 10.10267,4.2382 13.73633,7.2539 3.63365,3.01571 5.76328,6.36525 5.79882,10.21485 0.14164,15.3403 0.29989,24.03047 0.33008,25.74218 -4.0621,0.17278 -12.98728,-0.0674 -17.92383,-5.0039 -3.35014,-3.35014 -4.6051,-7.64727 -5.33789,-12.45703 -0.73279,-4.80977 -0.82464,-9.97981 -2.39062,-14.67774 -2.1822,-6.5466 -6.34719,-11.2484 -9.20703,-14.15625 0.49909,0.009 0.69163,-0.0616 1.28125,-0.0117 z"
         style="color:#000000;font-style:normal;font-variant:normal;font-weight:normal;font-stretch:normal;font-size:medium;line-height:normal;font-family:sans-serif;text-indent:0;text-align:start;text-decoration:none;text-decoration-line:none;text-decoration-style:solid;text-decoration-color:#000000;letter-spacing:normal;word-spacing:normal;text-transform:none;direction:ltr;block-progression:tb;writing-mode:lr-tb;baseline-shift:baseline;text-anchor:start;white-space:normal;clip-rule:nonzero;display:inline;overflow:visible;visibility:visible;opacity:1;isolation:auto;mix-blend-mode:normal;color-interpolation:sRGB;color-interpolation-filters:linearRGB;solid-color:#000000;solid-opacity:1;fill:#87ccda;fill-opacity:1;fill-rule:evenodd;stroke:none;stroke-width:5;stroke-linecap:round;stroke-linejoin:round;stroke-miterlimit:4;stroke-dasharray:none;stroke-dashoffset:0;stroke-opacity:1;color-rendering:auto;image-rendering:auto;shape-rendering:auto;text-rendering:auto;enable-background:accumulate" />
      <path
         inkscape:connector-curvature="0"
         id="path4201"
         d="m 60.136834,789.75308 a 2.50025,2.50025 0 0 0 -0.90235,0.16797 c -7.04403,2.61635 -11.89674,8.65831 -15.09765,13.90039 -3.20092,5.24208 -4.78516,9.91211 -4.78516,9.91211 a 2.50025,2.50025 0 1 0 4.73437,1.60937 c 0,0 1.42048,-4.16825 4.31836,-8.91406 2.89788,-4.7458 7.23997,-9.84047 12.57032,-11.82031 a 2.50025,2.50025 0 0 0 -0.83789,-4.85547 z"
         style="color:#000000;font-style:normal;font-variant:normal;font-weight:normal;font-stretch:normal;font-size:medium;line-height:normal;font-family:sans-serif;text-indent:0;text-align:start;text-decoration:none;text-decoration-line:none;text-decoration-style:solid;text-decoration-color:#000000;letter-spacing:normal;word-spacing:normal;text-transform:none;direction:ltr;block-progression:tb;writing-mode:lr-tb;baseline-shift:baseline;text-anchor:start;white-space:normal;clip-rule:nonzero;display:inline;overflow:visible;visibility:visible;opacity:1;isolation:auto;mix-blend-mode:normal;color-interpolation:sRGB;color-interpolation-filters:linearRGB;solid-color:#000000;solid-opacity:1;fill:#87ccda;fill-opacity:1;fill-rule:evenodd;stroke:none;stroke-width:5;stroke-linecap:round;stroke-linejoin:round;stroke-miterlimit:4;stroke-dasharray:none;stroke-dashoffset:0;stroke-opacity:1;color-rendering:auto;image-rendering:auto;shape-rendering:auto;text-rendering:auto;enable-background:accumulate" />
      <path
         inkscape:connector-curvature="0"
         id="path4201-6"
         d="m 61.298934,789.75308 a 2.50025,2.50025 0 0 0 -0.76171,4.85547 c 5.33034,1.97984 9.67243,7.07451 12.57031,11.82031 2.89788,4.74581 4.31836,8.91406 4.31836,8.91406 a 2.50025,2.50025 0 1 0 4.73437,-1.60937 c 0,0 -1.58424,-4.67003 -4.78515,-9.91211 -3.20092,-5.24208 -8.05363,-11.28404 -15.09766,-13.90039 a 2.50025,2.50025 0 0 0 -0.97852,-0.16797 z"
         style="color:#000000;font-style:normal;font-variant:normal;font-weight:normal;font-stretch:normal;font-size:medium;line-height:normal;font-family:sans-serif;text-indent:0;text-align:start;text-decoration:none;text-decoration-line:none;text-decoration-style:solid;text-decoration-color:#000000;letter-spacing:normal;word-spacing:normal;text-transform:none;direction:ltr;block-progression:tb;writing-mode:lr-tb;baseline-shift:baseline;text-anchor:start;white-space:normal;clip-rule:nonzero;display:inline;overflow:visible;visibility:visible;opacity:1;isolation:auto;mix-blend-mode:normal;color-interpolation:sRGB;color-interpolation-filters:linearRGB;solid-color:#000000;solid-opacity:1;fill:#87ccda;fill-opacity:1;fill-rule:evenodd;stroke:none;stroke-width:5;stroke-linecap:round;stroke-linejoin:round;stroke-miterlimit:4;stroke-dasharray:none;stroke-dashoffset:0;stroke-opacity:1;color-rendering:auto;image-rendering:auto;shape-rendering:auto;text-rendering:auto;enable-background:accumulate" />
      <path
         inkscape:connector-curvature="0"
         id="path4147-5"
         d="m 96.453234,807.86832 c -4.12494,0.34897 -9.48329,1.4639 -14.92969,3.35351 -5.44639,1.88961 -10.96177,4.53753 -15.28906,8.12891 -4.32728,3.59138 -7.55484,8.323 -7.60742,14.01758 -0.15447,16.72953 -0.36133,28.06054 -0.36133,28.06054 a 2.50025,2.50025 0 0 0 2.1211,2.51563 c 0,0 15.32867,2.78266 24.36914,-6.25781 4.42763,-4.42764 5.9511,-10.02027 6.74609,-15.23829 0.79499,-5.21801 0.9796,-10.2142 2.19141,-13.84961 2.4315,-7.29451 10.773426,-15.0996 10.773426,-15.0996 a 2.50025,2.50025 0 0 0 0.78711,-1.41993 c 0.20644,-1.15714 -0.4994,-2.58304 -1.27148,-3.17187 -0.77209,-0.58884 -1.49433,-0.7772 -2.24414,-0.92578 -1.49964,-0.29716 -3.222686,-0.28777 -5.285156,-0.11328 z m 0.42188,4.98046 c 0.59022,-0.0499 0.78371,0.021 1.2832,0.0117 -2.85985,2.90785 -7.02679,7.60965 -9.20898,14.15625 -1.56598,4.69793 -1.65784,9.86797 -2.39063,14.67774 -0.73279,4.80976 -1.98775,9.10689 -5.33789,12.45703 -4.93792,4.93793 -13.86335,5.17696 -17.92383,5.0039 0.0302,-1.71171 0.18844,-10.40188 0.33008,-25.74218 0.0355,-3.8496 2.16713,-7.19914 5.80078,-10.21485 3.63366,-3.0157 8.6806,-5.50051 13.73438,-7.2539 5.05377,-1.75339 10.13202,-2.79276 13.71289,-3.09571 z"
         style="color:#000000;font-style:normal;font-variant:normal;font-weight:normal;font-stretch:normal;font-size:medium;line-height:normal;font-family:sans-serif;text-indent:0;text-align:start;text-decoration:none;text-decoration-line:none;text-decoration-style:solid;text-decoration-color:#000000;letter-spacing:normal;word-spacing:normal;text-transform:none;direction:ltr;block-progression:tb;writing-mode:lr-tb;baseline-shift:baseline;text-anchor:start;white-space:normal;clip-rule:nonzero;display:inline;overflow:visible;visibility:visible;opacity:1;isolation:auto;mix-blend-mode:normal;color-interpolation:sRGB;color-interpolation-filters:linearRGB;solid-color:#000000;solid-opacity:1;fill:#87ccda;fill-opacity:1;fill-rule:evenodd;stroke:none;stroke-width:5;stroke-linecap:round;stroke-linejoin:round;stroke-miterlimit:4;stroke-dasharray:none;stroke-dashoffset:0;stroke-opacity:1;color-rendering:auto;image-rendering:auto;shape-rendering:auto;text-rendering:auto;enable-background:accumulate" />
    </g>
  </g>
</svg>
