<?xml version="1.0" encoding="UTF-8" standalone="no"?>
<!-- Created with Inkscape (http://www.inkscape.org/) -->

<svg
   xmlns:dc="http://purl.org/dc/elements/1.1/"
   xmlns:cc="http://creativecommons.org/ns#"
   xmlns:rdf="http://www.w3.org/1999/02/22-rdf-syntax-ns#"
   xmlns:svg="http://www.w3.org/2000/svg"
   xmlns="http://www.w3.org/2000/svg"
   xmlns:sodipodi="http://sodipodi.sourceforge.net/DTD/sodipodi-0.dtd"
   xmlns:inkscape="http://www.inkscape.org/namespaces/inkscape"
   id="svg2"
   version="1.1"
   inkscape:version="0.91 r13725"
   xml:space="preserve"
   width="172.2"
   height="172.2"
   viewBox="0 0 172.2 172.2"
   sodipodi:docname="peace-icon.svg"><metadata
     id="metadata8"><rdf:RDF><cc:Work
         rdf:about=""><dc:format>image/svg+xml</dc:format><dc:type
           rdf:resource="http://purl.org/dc/dcmitype/StillImage" /><dc:title></dc:title></cc:Work></rdf:RDF></metadata><defs
     id="defs6"><clipPath
       clipPathUnits="userSpaceOnUse"
       id="clipPath18"><path
         d="M 0,1377.58 0,0 l 1377.58,0 0,1377.58 -1377.58,0 z"
         id="path20"
         inkscape:connector-curvature="0" /></clipPath></defs><sodipodi:namedview
     pagecolor="#ffffff"
     bordercolor="#666666"
     borderopacity="1"
     objecttolerance="10"
     gridtolerance="10"
     guidetolerance="10"
     inkscape:pageopacity="0"
     inkscape:pageshadow="2"
     inkscape:window-width="1920"
     inkscape:window-height="1137"
     id="namedview4"
     showgrid="false"
     inkscape:zoom="1.3704994"
     inkscape:cx="86.099998"
     inkscape:cy="86.099998"
     inkscape:window-x="-8"
     inkscape:window-y="-8"
     inkscape:window-maximized="1"
     inkscape:current-layer="g10" /><g
     id="g10"
     inkscape:groupmode="layer"
     inkscape:label="ink_ext_XXXXXX"
     transform="matrix(1.25,0,0,-1.25,0,172.2)"><g
       id="g12"
       transform="scale(0.1,0.1)"
       style="fill:#80d4c8;fill-opacity:1"><g
         id="g14"
         style="fill:#80d4c8;fill-opacity:1"><g
           id="g16"
           clip-path="url(#clipPath18)"
           style="fill:#80d4c8;fill-opacity:1"><path
             d="M 688.789,1357.58 C 320.02,1357.58 20,1057.56 20,688.789 20,320.02 320.02,20 688.789,20 c 368.771,0 668.791,300.02 668.791,668.789 0,368.771 -300.02,668.791 -668.791,668.791 z M 688.789,0 C 308.992,0 0,308.988 0,688.789 c 0,379.801 308.992,688.791 688.789,688.791 379.791,0 688.791,-308.99 688.791,-688.791 C 1377.58,308.988 1068.58,0 688.789,0"
             style="fill:#80d4c8;fill-opacity:1;fill-rule:nonzero;stroke:none"
             id="path22"
             inkscape:connector-curvature="0" /><path
             d="m 688.789,1274.38 c -323.816,0 -587.266,-263.45 -587.266,-587.271 0,-323.82 263.45,-587.2692 587.266,-587.2692 323.821,0 587.261,263.4492 587.261,587.2692 0,323.821 -263.44,587.271 -587.261,587.271 z m 0,-1194.5402 c -334.844,0 -607.2656,272.4222 -607.2656,607.2692 0,334.851 272.4216,607.271 607.2656,607.271 334.841,0 607.261,-272.42 607.261,-607.271 0,-334.847 -272.42,-607.2692 -607.261,-607.2692"
             style="fill:#80d4c8;fill-opacity:1;fill-rule:nonzero;stroke:none"
             id="path24"
             inkscape:connector-curvature="0" /><path
             d="m 463.945,129.66 20,0 0,142.918 -20,0 0,-142.918 z"
             style="fill:#80d4c8;fill-opacity:1;fill-rule:nonzero;stroke:none"
             id="path26"
             inkscape:connector-curvature="0" /><path
             d="m 570.82,216.891 c -1.894,0.308 -188.972,33.648 -184.765,252.031 -7.41,50.898 -15.711,113.058 -13.426,122.168 -0.149,-0.027 -0.195,0.898 -0.266,2.297 -3.332,65.644 55.918,111.941 176.106,137.625 6.961,3.511 41.726,20.601 82.019,32.98 61.953,19.028 104.91,17.133 127.676,-5.64 l 1.785,-2.422 c 0.981,-1.875 23.946,-46.43 8.379,-88.629 -8.836,-23.946 -28.023,-41.973 -57.039,-53.574 l -124.894,-55.372 0,0 c 0,0 -6.102,-1.835 -7.848,-6.093 -1.621,-3.946 0.769,-9.61 3.062,-13.653 l 0.879,-2.05 31.594,-105.371 -19.16,-5.743 -31.277,104.336 c -6.094,11.231 -7.266,21.438 -3.477,30.364 4.977,11.746 16.648,16.179 20.27,17.304 l 123.078,54.696 c 23.886,9.57 39.257,23.671 46.047,42.082 11.191,30.328 -3.301,63.964 -6.665,71.054 -36.394,33.164 -146.648,-12.16 -186.492,-32.668 l -2.511,-0.89 C 388.176,676.637 391.309,614.742 392.336,594.402 c 0.176,-3.351 0.293,-5.761 -0.316,-8.175 -0.711,-6.934 6.503,-64.2 13.949,-115.235 l 0.125,-0.82 -0.02,-0.84 C 401.738,267.859 567.043,237.809 574.082,236.621 l -3.262,-19.73"
             style="fill:#80d4c8;fill-opacity:1;fill-rule:nonzero;stroke:none"
             id="path28"
             inkscape:connector-curvature="0" /><path
             d="m 431.953,687.633 -41.316,354.097 0.015,0.73 c 0.032,0.86 3.43,86.06 81.391,101.15 1.941,0.49 61.668,14.9 91.629,-82.47 l 0.41,-2.14 18.801,-235.918 13.164,-78.711 -19.731,-3.289 -13.269,79.559 -18.817,235.659 c -24.101,77.05 -66.132,68.23 -67.875,67.78 -59.707,-11.56 -65.242,-74.54 -65.671,-81.57 l 41.132,-352.561 -19.863,-2.316"
             style="fill:#80d4c8;fill-opacity:1;fill-rule:nonzero;stroke:none"
             id="path30"
             inkscape:connector-curvature="0" /><path
             d="m 609.871,741.773 -19.898,1.907 29.773,310.9 c 0.215,2.21 5.692,53.15 37.305,77.74 13.984,10.88 30.754,14.97 49.707,12.13 24.922,-3.86 73.047,-23.78 77.207,-71.64 l 0.058,-0.64 -0.031,-0.65 -10.293,-244.665 -19.976,0.84 10.261,244.005 c -4.277,43.59 -57.961,52.61 -60.254,52.98 -13.41,1.99 -24.714,-0.64 -34.355,-8.12 -24.844,-19.26 -29.687,-63.51 -29.727,-63.95 L 609.871,741.773"
             style="fill:#80d4c8;fill-opacity:1;fill-rule:nonzero;stroke:none"
             id="path32"
             inkscape:connector-curvature="0" /><path
             d="m 765.188,438.355 c -41.731,0 -66.333,35.032 -73.84,54.993 l -0.645,1.699 0,124.91 20,0 0,-121.113 c 3.594,-8.242 21.985,-45.176 62.012,-39.989 l 0.683,0.086 0.684,0 c 1.465,0 36.895,0.645 60.93,40.637 l 0,267.387 c 0.039,1.832 0.054,36.008 -61.797,52.07 -6.82,-0.836 -37.387,-6.508 -53.391,-42.082 l -18.242,8.203 c 22.852,50.789 69.895,53.875 71.887,53.981 l 1.504,0.086 1.453,-0.368 C 856.797,818.758 855.105,768.57 855,766.441 l 0.012,-272.226 -1.313,-2.293 c -28.308,-49.738 -72.332,-52.805 -78.98,-52.981 -3.274,-0.39 -6.449,-0.586 -9.531,-0.586"
             style="fill:#80d4c8;fill-opacity:1;fill-rule:nonzero;stroke:none"
             id="path34"
             inkscape:connector-curvature="0" /><path
             d="m 910.93,438.355 c -41.731,0 -66.328,35.032 -73.84,54.993 l -0.645,1.699 0,109.637 20,0 0,-105.84 c 3.594,-8.242 21.922,-45.176 62.012,-39.989 l 0.684,0.086 0.683,0 c 1.465,0 36.895,0.645 60.93,40.637 l 0,267.387 c 0.039,1.832 0.059,36.008 -61.801,52.07 -6.812,-0.836 -37.383,-6.508 -53.387,-42.082 l -11.648,-22.89 -17.813,9.082 11.434,22.453 c 22.637,50.347 69.68,53.433 71.672,53.539 l 1.504,0.086 1.453,-0.368 c 80.372,-20.097 78.682,-70.285 78.572,-72.414 l 0.01,-272.226 -1.309,-2.293 c -28.308,-49.738 -72.332,-52.805 -78.98,-52.981 -3.273,-0.39 -6.445,-0.586 -9.531,-0.586"
             style="fill:#80d4c8;fill-opacity:1;fill-rule:nonzero;stroke:none"
             id="path36"
             inkscape:connector-curvature="0" /><path
             d="m 832.871,217.559 -7.812,18.402 c 48.496,20.578 79.504,46.199 93.664,59.641 8.218,7.808 12.312,12.91 12.351,12.957 l 1.367,1.421 c 70.359,59.692 48.704,183.844 48.477,185.094 l 19.672,3.586 c 1.01,-5.539 23.73,-136.07 -54.516,-203.34 -1.609,-1.941 -6.113,-7.14 -13.586,-14.23 -18.496,-17.551 -50.8,-42.82 -99.617,-63.531"
             style="fill:#80d4c8;fill-opacity:1;fill-rule:nonzero;stroke:none"
             id="path38"
             inkscape:connector-curvature="0" /><path
             d="m 922.043,141.461 20,0 0,146.898 -20,0 0,-146.898 z"
             style="fill:#80d4c8;fill-opacity:1;fill-rule:nonzero;stroke:none"
             id="path40"
             inkscape:connector-curvature="0" /><path
             d="m 708.34,766.609 -15.274,12.899 15.696,18.586 15.269,-12.903 -15.691,-18.582"
             style="fill:#80d4c8;fill-opacity:1;fill-rule:nonzero;stroke:none"
             id="path42"
             inkscape:connector-curvature="0" /></g></g></g></g></svg>