<?xml version="1.0" encoding="UTF-8" standalone="no"?>
<!-- Created with Inkscape (http://www.inkscape.org/) -->

<svg
   xmlns:dc="http://purl.org/dc/elements/1.1/"
   xmlns:cc="http://creativecommons.org/ns#"
   xmlns:rdf="http://www.w3.org/1999/02/22-rdf-syntax-ns#"
   xmlns:svg="http://www.w3.org/2000/svg"
   xmlns="http://www.w3.org/2000/svg"
   xmlns:sodipodi="http://sodipodi.sourceforge.net/DTD/sodipodi-0.dtd"
   xmlns:inkscape="http://www.inkscape.org/namespaces/inkscape"
   id="svg2"
   version="1.1"
   inkscape:version="0.91 r13725"
   xml:space="preserve"
   width="172.2"
   height="172.2"
   viewBox="0 0 172.2 172.2"
   sodipodi:docname="strength-icon.svg"><metadata
     id="metadata8"><rdf:RDF><cc:Work
         rdf:about=""><dc:format>image/svg+xml</dc:format><dc:type
           rdf:resource="http://purl.org/dc/dcmitype/StillImage" /><dc:title></dc:title></cc:Work></rdf:RDF></metadata><defs
     id="defs6"><clipPath
       clipPathUnits="userSpaceOnUse"
       id="clipPath18"><path
         d="M 0,1377.59 0,0 l 1377.58,0 0,1377.59 -1377.58,0 z"
         id="path20"
         inkscape:connector-curvature="0" /></clipPath></defs><sodipodi:namedview
     pagecolor="#ffffff"
     bordercolor="#666666"
     borderopacity="1"
     objecttolerance="10"
     gridtolerance="10"
     guidetolerance="10"
     inkscape:pageopacity="0"
     inkscape:pageshadow="2"
     inkscape:window-width="1920"
     inkscape:window-height="1137"
     id="namedview4"
     showgrid="false"
     inkscape:zoom="1.3704994"
     inkscape:cx="86.099998"
     inkscape:cy="86.099998"
     inkscape:window-x="-8"
     inkscape:window-y="-8"
     inkscape:window-maximized="1"
     inkscape:current-layer="g10" /><g
     id="g10"
     inkscape:groupmode="layer"
     inkscape:label="ink_ext_XXXXXX"
     transform="matrix(1.25,0,0,-1.25,0,172.2)"><g
       id="g12"
       transform="scale(0.1,0.1)"
       style="fill:#80d4c8;fill-opacity:1"><g
         id="g14"
         style="fill:#80d4c8;fill-opacity:1"><g
           id="g16"
           clip-path="url(#clipPath18)"
           style="fill:#80d4c8;fill-opacity:1"><path
             d="M 688.789,1357.59 C 320.02,1357.59 20,1057.57 20,688.793 20,320.02 320.02,20 688.789,20 c 368.771,0 668.791,300.02 668.791,668.793 0,368.777 -300.02,668.797 -668.791,668.797 z M 688.789,0 C 308.988,0 0,308.988 0,688.793 0,1068.6 308.988,1377.59 688.789,1377.59 1068.58,1377.59 1377.58,1068.6 1377.58,688.793 1377.58,308.988 1068.58,0 688.789,0"
             style="fill:#80d4c8;fill-opacity:1;fill-rule:nonzero;stroke:none"
             id="path22"
             inkscape:connector-curvature="0" /><path
             d="m 688.789,1274.39 c -323.816,0 -587.266,-263.46 -587.266,-587.281 0,-323.828 263.45,-587.2692 587.266,-587.2692 323.831,0 587.271,263.4412 587.271,587.2692 0,323.821 -263.44,587.281 -587.271,587.281 z m 0,-1194.5502 c -334.848,0 -607.2656,272.4222 -607.2656,607.2692 0,334.851 272.4176,607.281 607.2656,607.281 334.851,0 607.271,-272.43 607.271,-607.281 0,-334.847 -272.42,-607.2692 -607.271,-607.2692"
             style="fill:#80d4c8;fill-opacity:1;fill-rule:nonzero;stroke:none"
             id="path24"
             inkscape:connector-curvature="0" /><path
             d="m 522.168,119.398 -20,0.352 5.254,310.039 c 0.121,1.504 6.445,65.547 -17.227,114.82 -12.164,25.336 -30.195,42.348 -53.59,50.571 l 6.633,18.867 c 28.578,-10.039 50.446,-30.488 64.985,-60.766 26.172,-54.488 19.445,-121.875 19.144,-124.715 l -5.199,-309.168"
             style="fill:#80d4c8;fill-opacity:1;fill-rule:nonzero;stroke:none"
             id="path26"
             inkscape:connector-curvature="0" /><path
             d="m 867.18,119.398 -5.254,310.04 c -0.246,1.968 -6.977,69.355 19.195,123.843 14.543,30.278 36.406,50.727 64.992,60.766 l 6.621,-18.867 C 929.348,586.957 911.316,569.945 899.148,544.609 875.41,495.188 881.797,431.293 881.863,430.656 l 5.317,-310.906 -20,-0.352"
             style="fill:#80d4c8;fill-opacity:1;fill-rule:nonzero;stroke:none"
             id="path28"
             inkscape:connector-curvature="0" /><path
             d="m 431.191,533.754 c -17.519,0 -37.761,0.855 -59.117,3.437 -83.312,10.02 -143.469,41.903 -174.23,92.274 -6.321,3.41 -19.617,12.297 -21.578,27.48 -1.582,12.266 4.718,24.582 18.754,36.653 0.554,14.257 4.179,57.449 26.992,109.613 25.218,57.672 79.746,137.539 196.273,190.504 l 2.805,0.808 c 8.23,1.098 81.199,9.777 105.558,-26.875 l 1.11,-2.23 c 2.086,-5.953 19.754,-58.848 -2.078,-82.578 l -1.282,-1.168 c -1.625,-1.25 -40.476,-30.414 -87.296,-16.656 l -7.18,2.117 0,19.031 c -25.203,-9.879 -80.512,-44.312 -66.684,-153.851 13.371,10.73 34.649,23.894 59.852,23.109 21.082,-0.527 40.426,-10.477 57.613,-29.609 18.574,12.839 66.168,39.082 115.203,12.269 7.293,3.781 25.387,18.981 16.637,74.988 l 19.758,3.082 c 13.844,-88.562 -33.512,-98.488 -35.539,-98.871 l -3.766,-0.707 -3.273,1.996 C 539.016,749.441 486.16,704.977 485.629,704.52 l -7.961,-6.832 -6.441,8.285 c -14.856,19.113 -31.215,29.019 -48.637,29.461 -31.723,0.652 -58.488,-29.543 -58.75,-29.844 l -13.645,-15.856 -3.769,20.575 c -11.539,62.961 -4.531,113.464 20.824,150.097 28.348,40.949 69.172,48.739 70.895,49.043 l 11.777,2.129 0,-29.07 c 30.836,-5.606 56.973,11.316 61.609,14.539 9.375,11.613 3.828,42.492 -2.215,60.5 -15.308,20.781 -64.406,19.723 -84.125,17.332 C 214.938,878.508 214.898,690.809 214.922,688.918 l 0.062,-4.949 -3.89,-3.047 c -10.403,-8.145 -15.723,-15.766 -14.989,-21.406 0.872,-6.782 10.305,-12.153 12.782,-13.223 l 3.015,-1.309 1.657,-2.832 c 65.867,-112.914 272.105,-85.414 274.175,-85.136 l 2.774,-19.805 c -1.481,-0.219 -25.242,-3.457 -59.317,-3.457"
             style="fill:#80d4c8;fill-opacity:1;fill-rule:nonzero;stroke:none"
             id="path30"
             inkscape:connector-curvature="0" /><path
             d="m 953.691,533.754 c -34.082,0 -57.839,3.238 -59.316,3.457 l 2.773,19.805 c 2.082,-0.286 208.402,-27.629 274.172,85.136 l 1.66,2.832 3.02,1.309 c 3.02,1.348 11.98,6.719 12.79,13.262 0.69,5.64 -4.63,13.242 -15,21.367 l -3.88,3.047 0.05,4.933 c 0.02,1.895 -0.56,189.836 -210.265,285.977 -19.761,2.398 -68.816,3.449 -84.129,-17.332 -6.046,-18.016 -11.589,-48.895 -2.214,-60.5 4.578,-3.184 30.808,-20.129 61.609,-14.539 l 0,29.07 11.777,-2.129 c 1.731,-0.304 42.539,-8.094 70.892,-49.035 25.35,-36.641 32.36,-87.141 20.83,-150.105 l -3.75,-20.473 -13.66,15.738 c -0.26,0.301 -26.929,30.387 -58.855,29.852 -17.382,-0.469 -33.711,-10.375 -48.543,-29.453 l -6.406,-8.25 -7.976,6.785 c -2.168,1.836 -53.594,44.785 -104.114,14.062 l -3.269,-1.996 -3.774,0.707 c -2.019,0.383 -49.375,10.309 -35.535,98.871 l 19.766,-3.082 c -8.723,-55.793 9.199,-71.09 16.672,-74.968 49.011,26.789 96.582,0.55 115.164,-12.289 17.187,19.132 36.535,29.082 57.617,29.609 24.504,0.558 46.473,-12.379 59.843,-23.109 13.83,109.515 -41.445,143.96 -66.679,153.847 l 0,-19.027 -7.18,-2.117 c -46.843,-13.77 -85.672,15.406 -87.301,16.656 l -1.281,1.168 c -21.828,23.73 -4.16,76.625 -2.07,82.578 l 1.101,2.23 c 24.375,36.652 97.305,27.973 105.571,26.875 l 2.801,-0.808 C 1083.13,940.75 1137.66,860.883 1162.87,803.211 c 22.81,-52.164 26.44,-95.356 26.99,-109.613 14.04,-12.071 20.35,-24.387 18.75,-36.653 -1.96,-15.183 -15.25,-24.07 -21.57,-27.48 -30.76,-50.371 -90.92,-82.254 -174.24,-92.274 -21.347,-2.582 -41.589,-3.437 -59.109,-3.437"
             style="fill:#80d4c8;fill-opacity:1;fill-rule:nonzero;stroke:none"
             id="path32"
             inkscape:connector-curvature="0" /><path
             d="m 688.789,1024.61 c -44.801,0 -81.25,-50.465 -81.25,-112.501 0,-62.027 36.449,-112.5 81.25,-112.5 44.805,0 81.25,50.473 81.25,112.5 0,62.036 -36.445,112.501 -81.25,112.501 z m 0,-245.001 c -55.828,0 -101.25,59.442 -101.25,132.5 0,73.063 45.422,132.501 101.25,132.501 55.828,0 101.25,-59.438 101.25,-132.501 0,-73.058 -45.422,-132.5 -101.25,-132.5"
             style="fill:#80d4c8;fill-opacity:1;fill-rule:nonzero;stroke:none"
             id="path34"
             inkscape:connector-curvature="0" /></g></g></g></g></svg>